REM MD5 daef8560f1113b42781be240794b3f81
FILE "Actua Golf 2 (Europe).bin" BINARY
  TRACK 01 MODE2/2352
    INDEX 01 00:00:00
  TRACK 02 AUDIO
    INDEX 00 35:34:43
    INDEX 01 35:36:43
  TRACK 03 AUDIO
    INDEX 00 38:31:54
    INDEX 01 38:33:54
REM LEADOUT 42:45:27
